<svg version="1.2" xmlns="http://www.w3.org/2000/svg" viewBox="0 0 996 541" width="996" height="541"><style>.a{fill:#47771c}.b{fill:#37b5ff}.c{fill:#89412e}</style><path class="a" d="m517.5 20.6c38.3 0.2 71.4 0.9 89 1.8 15.4 0.9 34.3 2.1 42 2.6 7.7 0.6 23.7 2 35.5 3.1 11.8 1.1 32.1 3.4 45 5 12.9 1.6 30.3 4.1 38.5 5.4 8.3 1.3 22.6 4 32 5.9 9.4 1.9 22.6 4.8 29.5 6.4 6.9 1.7 19 5.1 27 7.5 8 2.5 19.9 6.8 26.5 9.6 6.6 2.8 14.9 6.9 18.5 9 3.6 2.1 8.9 6.1 11.9 8.7 3 2.7 6.7 7.1 8.2 9.9 2.1 3.5 2.9 6.4 2.9 9.7 0 3.3-0.6 5.4-1.8 6.5-1 1-3.1 3.6-4.7 5.8-1.7 2.1-5.7 5.9-9 8.3-3.3 2.4-10 6.5-15 8.9-5 2.5-13.5 6.3-19 8.4-5.5 2.2-16.1 5.7-23.5 7.9-7.4 2.1-17.3 4.8-22 6-4.7 1.2-17 3.9-27.5 6-10.5 2.1-29.4 5.5-42 7.4-12.6 2-30.4 4.4-39.5 5.5-9.1 1.1-26.2 2.9-38 4-11.8 1.1-31.6 2.7-44 3.5-12.4 0.8-33.8 2.1-47.5 2.8-14.4 0.7-50.6 1.2-85.5 1.2-34.9 0-71.1-0.5-85.5-1.2-13.8-0.7-35.1-2-47.5-2.8-12.4-0.8-32.2-2.4-44-3.5-11.8-1.1-28.9-2.9-38-4-9.1-1.1-25.5-3.3-36.5-5-11-1.7-25.9-4.1-33-5.5-7.2-1.3-18.4-3.6-25-5-6.6-1.4-19-4.5-27.5-6.9-8.5-2.4-20-5.9-25.5-7.8-5.5-1.9-13.4-5-17.5-6.8-4.1-1.8-10.2-4.9-13.5-6.7-3.3-1.8-8.4-5.1-11.3-7.3-2.8-2.1-6.4-5.6-7.9-7.7-1.5-2-3.5-4.5-4.5-5.5q-1.8-1.7-1.8-6.2 0-4.5 2.8-9.7c1.5-2.8 5.2-7.3 8.2-10.1 3-2.7 8.9-6.9 13-9.3 4.1-2.4 12.2-6.4 18-8.8 5.8-2.4 17-6.4 25-8.9 8-2.5 19-5.7 24.5-7.1 5.5-1.4 19.9-4.5 32-7 12.1-2.4 29.4-5.6 38.5-7 9.1-1.4 25.7-3.6 37-5 11.3-1.4 29.9-3.5 41.5-4.6 11.6-1.1 30.7-2.6 42.5-3.4 11.8-0.8 32.8-2 46.5-2.6 13.8-0.6 28.6-1.2 33-1.4 4.4-0.2 35.5-0.2 69 0z"/><path class="b" d="m503.5 19.4c16 0 22.7 0.2 15 0.3-7.7 0.2-20.8 0.2-29 0-8.3-0.1-2-0.3 14-0.3zm-64.5 1c8.5 0 12.1 0.2 8 0.3-4.1 0.2-11.1 0.2-15.5 0-4.4-0.1-1-0.3 7.5-0.3zm131.5 0c8.3 0 11.9 0.2 8 0.3-3.9 0.2-10.6 0.2-15 0-4.4-0.1-1.3-0.3 7-0.3zm-158 0.9c8.4 0 5.9 0.3-10.5 1.2-11.8 0.7-24.2 1.3-27.5 1.3-3.3-0.1-5.1-0.2-4-0.5 1.1-0.2 8.5-0.7 16.5-1.2 8-0.4 19.4-0.8 25.5-0.8zm174-0.2l19 0.6c10.5 0.3 22.6 0.8 27 1.3 6.8 0.6 7.2 0.7 2.5 0.8-3 0-15.2-0.6-27-1.3zm-260 6c4 0.1 1.4 0.5-7.5 1.4-7.4 0.8-14.2 1.3-15 1.1-0.8-0.2 2.1-0.7 6.5-1.1 4.4-0.4 8.4-0.9 9-1.1 0.6-0.2 3.7-0.3 7-0.3zm361.5 0.5c5.8 0.3 12.3 0.9 14.5 1.3 3 0.7 2.3 0.8-3 0.4-3.9-0.3-10.4-0.9-14.5-1.4-6.7-0.8-6.3-0.8 3-0.3zm45.5 5.4l6.5 0.5c3.6 0.3 8.1 0.9 10 1.4 1.9 0.4 2.6 0.8 1.5 0.8-1.1 0.1-5.6-0.5-10-1.3zm-468.1 1c2.2-0.1 3.7 0.1 3.5 0.3-0.2 0.2-3.1 0.6-6.4 0.9-3.9 0.4-5.1 0.3-3.5-0.2 1.4-0.5 4.3-0.9 6.4-1z"/><path class="c" d="m87.9 112c0.3 0 2.1 2 3.8 4.5 1.8 2.5 5.7 6.3 8.5 8.4 2.9 2.2 8 5.5 11.3 7.3 3.3 1.8 9.4 4.9 13.5 6.7 4.1 1.8 12 4.9 17.5 6.8 5.5 1.9 17 5.4 25.5 7.8 8.5 2.4 20.9 5.5 27.5 6.9 6.6 1.4 17.8 3.7 25 5 7.1 1.4 22 3.8 33 5.5 11 1.7 27.4 3.9 36.5 5 9.1 1.1 26.2 2.9 38 4 11.8 1.1 31.6 2.7 44 3.5 12.4 0.8 33.7 2.1 47.5 2.8 14.4 0.7 50.6 1.2 85.5 1.2 34.9 0 71.1-0.5 85.5-1.2 13.7-0.7 35.1-2 47.5-2.8 12.4-0.8 32.2-2.4 44-3.5 11.8-1.1 28.9-2.9 38-4 9.1-1.1 26.9-3.5 39.5-5.5 12.6-1.9 31.5-5.3 42-7.4 10.5-2.1 22.8-4.8 27.5-6 4.7-1.2 14.6-3.9 22-6 7.4-2.2 18-5.7 23.5-7.9 5.5-2.1 14-5.9 19-8.4 5-2.4 11.8-6.6 15.2-9.1 3.5-2.5 7.7-6.5 9.4-8.8 1.7-2.4 3.6-4.3 4.2-4.3 0.7 0 1.4 1.6 1.6 3.5 0.1 1.9-0.2 7.1-0.8 11.5-0.6 4.4-1.6 13.4-2.2 20-0.6 6.6-2.2 18.5-3.5 26.5-1.4 8-4.1 21-6 29-1.9 8-6.3 23.1-9.8 33.5-3.5 10.5-8.7 24.4-11.6 31-2.9 6.6-7.7 17-10.7 23-3.1 6-8.3 15.7-11.6 21.5-3.3 5.8-9.6 15.9-14 22.5-4.4 6.6-11.4 16.5-15.6 22-4.1 5.5-11.6 14.7-16.6 20.5-4.9 5.8-14.6 16-21.5 22.8-6.9 6.8-17.5 16.6-23.5 21.7-6 5.2-16.3 13.4-22.7 18.2-6.4 4.8-17.6 12.6-25 17.3-7.3 4.6-21.4 12.6-31.3 17.7-9.9 5-23.4 11.5-30 14.3-6.6 2.9-19.9 7.8-29.5 11.1-9.6 3.2-24 7.4-32 9.3-8 1.9-20.6 4.6-28 6-7.4 1.4-23.2 3.4-35 4.6-17.6 1.8-25.6 2.1-44.5 1.7-12.6-0.2-29.5-1.2-37.5-2.1-8-0.9-20.8-2.7-28.5-4.1-7.7-1.3-21.2-4.2-30-6.4-8.8-2.2-23.2-6.4-32-9.5-8.8-3-21.6-7.8-28.5-10.7-6.9-2.9-19.3-8.7-27.5-12.9-8.3-4.3-19.3-10.3-24.5-13.5-5.2-3.2-14.7-9.3-21-13.6-6.3-4.2-16.9-12.1-23.5-17.3-6.6-5.3-17.8-14.9-24.9-21.4-7.1-6.4-18.7-18.2-25.8-26.2-7.1-8-16.9-19.7-21.7-26-4.8-6.3-11.7-15.8-15.2-21-3.5-5.2-9.4-14.7-13.2-21-3.8-6.3-10.6-19.1-15.2-28.5-4.6-9.4-10.4-22.4-13-29-2.6-6.6-6.5-17.4-8.7-24-2.2-6.6-5.7-18.8-7.8-27-2.1-8.3-5-21.5-6.4-29.5-1.4-8-3.3-20.6-4.1-28-0.8-7.4-1.5-15.9-1.5-18.8 0-2.8-0.5-5.4-1-5.7-0.6-0.3-1.1-3.1-1.2-6.3-0.1-3.2 0.2-6.2 0.7-6.5 0.5-0.4 1.1-0.7 1.4-0.7z"/><path class="b" d="m664.8 64.1c22.1 0 48 0.4 57.5 0.9 9.4 0.6 24.2 1.7 32.7 2.6 8.5 0.8 22 2.4 30 3.5 8 1.1 19.9 3.2 26.5 4.6 6.6 1.3 17.1 4 23.3 5.9 6.1 1.9 14.5 5 18.5 6.9 3.9 1.9 8.7 4.8 10.5 6.5 1.7 1.6 3.7 4.2 4.2 5.7 0.6 1.6 0.9 3.9 0.6 5.3-0.3 1.4-2.5 4.3-4.8 6.4-2.4 2.2-7.4 5.4-11.3 7.2-3.8 1.8-11.5 4.6-17 6.3-5.5 1.7-15 4.2-21 5.5-6 1.4-18.9 3.6-28.5 5-9.6 1.4-24.5 3.2-33 4-8.5 0.8-25.6 2-38 2.7-14.5 0.8-36.6 1-62 0.6-21.7-0.3-47.6-1.3-57.5-2.1-9.9-0.8-23.8-2.2-31-3.1-7.1-0.8-18.6-2.5-25.5-3.6-6.9-1.2-18.7-3.6-26.2-5.5-7.6-1.9-18-5-23-7-5.1-1.9-11.5-5-14.2-6.7-2.7-1.8-5.7-4.4-6.7-6-1.1-1.5-1.9-4.4-1.9-6.5 0.1-3 0.8-4.4 4.3-7.6 2.3-2.2 7.9-5.7 12.5-7.8 4.5-2.1 13-5.2 19-6.9 5.9-1.7 15.9-4.2 22.2-5.4 6.3-1.3 17.8-3.3 25.5-4.4 7.7-1.1 21.4-2.7 30.5-3.6 9.1-0.9 22.6-1.9 30-2.4 7.4-0.4 31.6-0.9 53.8-1zm-386.3 13c14.9 0 34.2 0.4 43 0.9 8.8 0.6 23.2 1.9 32 3 8.8 1.1 21.6 3.3 28.5 4.9 6.9 1.6 15 3.8 18 5 3 1.1 7.8 3.5 10.5 5.3 4.4 2.9 5 3.8 5.3 7 0.2 3.2-0.4 4.3-3 6.8-1.8 1.7-6.9 4.4-11.3 6.1-4.4 1.7-12.7 4.2-18.5 5.5-5.8 1.3-17.2 3.3-25.5 4.4-8.2 1-20.8 2.5-28 3.2-7.9 0.8-26.8 1.3-48 1.3-26.2 0-39.4-0.5-52.5-1.8-9.6-1-23.6-2.7-31-3.8-7.4-1.2-17.8-3.2-23-4.6-5.2-1.3-12.6-3.9-16.5-5.7-3.9-1.8-8-4.5-9.3-6.2-1.2-1.6-2.3-3.7-2.2-4.7 0-0.9 1.2-3.1 2.8-4.8 1.5-1.7 5.5-4.4 9-6 3.4-1.6 9.9-3.8 14.5-5 4.5-1.1 12.3-2.9 17.2-3.9 5-1 15.5-2.6 23.5-3.5 8-0.9 19.7-2 26-2.4 6.3-0.5 23.7-0.9 38.5-1z"/></svg>