<svg version="1.2" xmlns="http://www.w3.org/2000/svg" viewBox="0 0 1080 243" width="1080" height="243"><style></style><path  d="m7.5 52.1c3.3 0 7.6 0.6 9.5 1.3 1.9 0.7 7.1 2.8 11.5 4.6 4.4 1.8 8.8 4 9.8 4.9 1.5 1.4 1.8 3.4 1.7 15.6 0 11.5 0.4 15.7 2.4 23.5 1.3 5.2 3.9 12.6 5.8 16.5 2 3.9 6.4 10.6 9.9 14.9 3.5 4.4 9.1 10.1 12.4 12.8 3.3 2.7 10.5 7.1 16 9.9 5.5 2.7 13.6 5.9 18 7.1 6.5 1.8 10.8 2.2 23.5 2.2 9.7 0 17.2-0.4 20-1.2 2.5-0.7 8.1-2.7 12.5-4.3 4.4-1.6 11.8-5.6 16.5-8.8q8.6-5.7 16.2-14.7c4.3-4.9 9-9.5 10.5-10.3 1.6-0.7 4.1-1.1 5.8-0.8 1.7 0.3 3.7 1.6 4.6 2.9 0.9 1.3 2.8 6.1 4.3 10.8 1.5 4.7 4.8 12.3 7.3 17 2.5 4.7 7.3 12.1 10.7 16.5 3.5 4.4 9.8 10.9 14.2 14.4 4.3 3.5 10.9 7.9 14.7 9.7 3.7 1.9 10.6 4.4 15.5 5.5 7 1.7 10.6 2 18.2 1.6 5.2-0.3 13.1-1.5 17.5-2.6 4.4-1.2 12.5-4.3 18-7.1 5.6-2.7 13.7-7.9 18.4-11.7 4.7-3.7 10.5-9.3 12.9-12.3 2.4-3 5.9-8.7 7.7-12.5 1.8-3.9 3.8-9.7 4.4-13 0.6-3.3 1.1-9.3 1.1-13.3 0-3.9 0.4-8.1 1-9.2 0.6-1.1 2.5-2.5 4.3-3 2.2-0.7 4.5-0.7 7.2 0.1 2.2 0.6 4.8 1.8 5.8 2.7 1 1 3.4 4.6 5.3 8.2 1.8 3.6 5.7 9.4 8.7 13 2.9 3.6 8.2 8.6 11.7 11.1 3.6 2.6 8.9 5.8 11.8 7.3 2.8 1.4 8.9 3.5 13.5 4.7 5.6 1.5 11.6 2.1 19.2 2.2 7.9 0.1 12.7-0.4 17-1.7 3.3-1 8.7-3.2 11.9-4.9 3.3-1.8 8.4-5.9 11.7-9.5 3.9-4.1 7.2-9 9.8-14.5 2.1-4.5 4.4-10.5 5.1-13.2 0.7-2.8 2.4-8.8 3.8-13.5 1.4-4.7 3-9 3.6-9.7 0.8-0.8 2.6-0.7 7.1 0.8 4.9 1.6 7.4 3.2 13.5 9.2 4.1 4 9.5 8.7 12 10.4 2.5 1.7 7.2 4.4 10.5 6 3.3 1.7 8.9 4 12.5 5.1 3.6 1.2 9.2 2.6 12.5 3.3 3.7 0.7 11.7 0.9 20.5 0.7 13-0.4 15.5-0.8 24-3.7 5.2-1.8 12.6-5.1 16.5-7.3 4.9-2.9 10.6-7.8 19-16.5 10.9-11.3 12.3-12.4 15.8-12.6 3-0.2 4.4 0.3 6.1 2.3 1.2 1.4 3.2 5.9 4.5 10 1.3 4.1 4.1 11.1 6.3 15.5 2.2 4.4 6.4 11.3 9.2 15.4 2.8 4.1 8.9 11 13.6 15.3 6.2 5.8 10.9 9.1 17.5 12.4 5 2.4 11.9 5.1 15.5 6 4.9 1.2 9.4 1.5 18 1.1 7.3-0.3 14.4-1.3 19.5-2.7 4.4-1.2 12-4.2 17-6.7 5-2.4 12.1-6.8 15.9-9.6 3.8-2.9 9.6-8.1 12.9-11.7 3.5-3.9 7.4-9.7 9.8-14.5 2.2-4.7 4.3-10.7 4.9-14.5 0.5-3.6 1-9.8 1-13.8 0-6.7 0.2-7.3 2.8-9.2 1.7-1.3 4.2-2.1 6.7-2 2.2 0 5.4 0.8 7 1.9 1.7 1 4.4 4.5 6.4 8.2 1.8 3.5 4.8 8.4 6.6 10.9 1.8 2.5 6.1 7.2 9.6 10.5 3.6 3.3 9.6 7.6 13.4 9.7 3.9 2 10.1 4.6 14 5.8 4.4 1.3 11 2.3 17.5 2.7 7.6 0.4 12.6 0.1 18-1.1 4.1-0.9 10.4-3 14-4.8 3.8-1.9 8.6-5.4 11.5-8.5 2.8-2.8 6.5-7.5 8.2-10.5 1.8-2.9 4.5-8.2 6-11.8 2.1-5.3 2.7-8.6 3.6-28.5l-3-3.5c-1.7-1.9-5.3-6.5-8.2-10.3-2.8-3.7-4.9-7.2-4.6-7.7 0.3-0.6 4.8-1 10.5-1 5.5 0 10.9 0.4 12 1 1.1 0.5 3.6 3.5 5.5 6.5 1.9 3 5.4 6.9 7.8 8.6 2.3 1.7 6.5 4.3 9.2 5.9 2.8 1.5 9 4.2 14 5.9 5 1.7 12.4 3.7 24 5.6l0.6 19-6.3-0.8c-3.5-0.5-10.1-2-14.8-3.4-4.7-1.3-12.4-4.2-17.2-6.4-4.9-2.1-9.1-3.9-9.5-3.9-0.5 0-1.4 3.1-2 7-0.7 3.8-2.6 10.5-4.3 14.7-1.6 4.3-4.7 10.3-6.7 13.4-2.1 3.1-5.7 7.7-8 10.3-2.4 2.5-6.9 6.7-10 9.3-3.2 2.5-9.4 6.4-13.8 8.5-4.4 2.1-11.4 4.6-15.5 5.5-4.6 1-12.2 1.6-19.5 1.7-8.1 0-14.6-0.6-20-1.8-4.4-1-11.6-3.2-16-4.9-4.4-1.7-10.2-4.4-13-6-2.7-1.6-7.5-4.9-10.5-7.2-3-2.3-6.2-5-7-5.9-0.8-0.9-1.8-1.7-2.2-1.6-0.5 0-1.8 1.9-2.9 4.2-1.2 2.4-4 7-6.3 10.3-2.2 3.3-6.6 8.6-9.8 11.7-3.2 3.2-9.5 8.6-14 11.9-4.6 3.4-14.2 9-21.3 12.5-8.1 4-16.7 7.4-23 9-5.6 1.5-14.2 2.8-19.5 3.1-6.5 0.4-12.5 0-19-1.1-5.4-1-12.9-3.2-17.5-5.2-4.4-1.9-10.5-4.9-13.5-6.7-3-1.7-10.5-8.2-16.6-14.2-6.1-6.1-13.1-14.2-15.6-18-2.5-3.9-6.2-10.4-8.3-14.5-2-4.1-4.1-8.1-4.6-8.8-0.7-0.9-2.2-0.1-6 3-2.8 2.4-7.1 5.8-9.5 7.5-2.4 1.8-7.2 4.9-10.6 6.8-3.5 1.9-9.9 4.7-14.3 6.4-4.4 1.6-12.3 3.6-17.5 4.5-5.2 0.9-12.9 1.6-17 1.6-4.1 0-12-0.9-17.5-2-5.5-1.1-12.9-3-16.5-4.2-3.6-1.1-9-3.3-12-4.7-3-1.5-7.3-3.8-9.5-5.1-2.2-1.3-7-4.6-10.7-7.2-3.8-2.6-7.1-4.6-7.5-4.4-0.5 0.2-1.1 1.9-1.5 3.7-0.4 1.9-2.7 7.4-5.2 12.4-2.5 4.9-7 12-10 15.7-3.1 3.8-8.2 8.8-11.3 11.3-3.2 2.5-8.7 6-12.3 7.9-3.6 1.9-9.4 4.5-13 5.7-5.9 2.1-8.3 2.3-24.5 2.3-16.8 0-18.6-0.2-27-2.7-4.9-1.6-12.6-4.6-17-6.7-4.4-2.1-11.7-6.8-16.2-10.4-4.6-3.6-8.7-6.6-9.3-6.6-0.6 0-1 0.7-1 1.5 0 0.8-2.6 5.4-5.9 10.2-3.3 4.9-9.3 12.1-13.7 16.2-4.4 4-10.6 9.2-13.9 11.6-3.3 2.3-9.8 6.3-14.5 8.8-4.7 2.5-12.1 5.9-16.5 7.5-4.4 1.6-11.4 3.7-15.5 4.7-5.2 1.3-11.1 1.8-19.5 1.7-8.6-0.1-14.3-0.7-20-2.2-4.4-1.1-12.1-4-17-6.4-4.9-2.4-11.9-6.6-15.5-9.3-3.6-2.7-9.6-8.3-13.3-12.4-3.8-4.1-9.2-11-12.2-15.4-2.9-4.4-7-11.5-9.2-15.8-2.1-4.2-4.2-7.7-4.8-7.7-0.6 0-2.6 1.6-4.5 3.5-1.9 2-6.9 5.9-11 8.8-4.1 2.8-11.1 6.8-15.5 8.9-4.4 2-11.6 4.6-16 5.7-4.4 1.1-12.7 2.6-18.5 3.2-8.9 0.9-12.2 0.9-21.5-0.6-6-0.9-14.9-3-19.7-4.6-4.9-1.6-11.2-4.1-14-5.5-2.9-1.5-8.4-4.7-12.3-7.2-3.8-2.5-10.3-7.7-14.4-11.6-4-3.9-9-9.4-11-12.1-2-2.8-5.2-7.7-7-11-1.9-3.3-4.7-9.6-6.3-14-1.6-4.4-3.6-11.8-4.4-16.5-0.8-4.7-1.4-13.2-1.3-29.5l-9.8-4.3c-5.4-2.3-11.3-5.1-13-6.2-2.6-1.6-3.3-2.7-3.5-5.4-0.1-2.2 0.3-3.6 1.3-3.9 0.7-0.3 4.1-0.6 7.4-0.6z"/></svg>